<svg width="322" height="76" viewBox="0 0 322 76" fill="none" xmlns="http://www.w3.org/2000/svg">
<path d="M11.56 10.96V24.24H34.52V34.48H11.56V47.76H37.08V58H0.76V0.719998H37.08V10.96H11.56ZM68.7181 53.84H68.0781C66.8515 55.3333 65.3581 56.6133 63.5981 57.68C61.8915 58.7467 59.6781 59.28 56.9581 59.28C54.9315 59.28 53.0115 58.9333 51.1981 58.24C49.4381 57.6 47.8915 56.6933 46.5581 55.52C45.2248 54.3467 44.1848 52.9333 43.4381 51.28C42.6915 49.6267 42.3181 47.8133 42.3181 45.84C42.3181 43.8133 42.7181 42 43.5181 40.4C44.3181 38.7467 45.4381 37.3333 46.8781 36.16C48.3181 34.9867 49.9981 34.1067 51.9181 33.52C53.8915 32.88 56.0248 32.56 58.3181 32.56C60.8781 32.56 62.9848 32.7733 64.6381 33.2C66.2915 33.5733 67.6515 33.9733 68.7181 34.4V33.2C68.7181 31.12 67.8915 29.4133 66.2381 28.08C64.5848 26.6933 62.5315 26 60.0781 26C56.4515 26 53.3848 27.52 50.8781 30.56L43.2781 25.36C47.4381 20.1333 53.1181 17.52 60.3181 17.52C66.3981 17.52 71.0381 18.96 74.2381 21.84C77.4381 24.6667 79.0381 28.88 79.0381 34.48V58H68.7181V53.84ZM68.7181 42.08C67.4915 41.4933 66.2115 41.04 64.8781 40.72C63.5981 40.3467 62.1848 40.16 60.6381 40.16C58.1315 40.16 56.1848 40.72 54.7981 41.84C53.4648 42.9067 52.7981 44.24 52.7981 45.84C52.7981 47.44 53.4381 48.72 54.7181 49.68C56.0515 50.64 57.5715 51.12 59.2781 51.12C60.6648 51.12 61.9448 50.88 63.1181 50.4C64.2915 49.8667 65.2781 49.2 66.0781 48.4C66.9315 47.5467 67.5715 46.5867 67.9981 45.52C68.4781 44.4 68.7181 43.2533 68.7181 42.08ZM102.5 59.28C99.94 59.28 97.6467 58.96 95.62 58.32C93.6467 57.68 91.9133 56.8533 90.42 55.84C88.98 54.7733 87.7533 53.5733 86.74 52.24C85.7267 50.8533 84.9533 49.4667 84.42 48.08L93.78 44.08C94.6867 46.1067 95.8867 47.6267 97.38 48.64C98.9267 49.6 100.633 50.08 102.5 50.08C104.42 50.08 105.94 49.7333 107.06 49.04C108.18 48.3467 108.74 47.52 108.74 46.56C108.74 45.4933 108.26 44.64 107.3 44C106.393 43.3067 104.793 42.6933 102.5 42.16L96.98 40.96C95.7533 40.6933 94.4733 40.2667 93.14 39.68C91.86 39.0933 90.6867 38.3467 89.62 37.44C88.5533 36.5333 87.6733 35.44 86.98 34.16C86.2867 32.88 85.94 31.3867 85.94 29.68C85.94 27.76 86.34 26.0533 87.14 24.56C87.9933 23.0667 89.14 21.8133 90.58 20.8C92.02 19.7333 93.7 18.9333 95.62 18.4C97.5933 17.8133 99.7 17.52 101.94 17.52C105.673 17.52 109.007 18.2667 111.94 19.76C114.873 21.2 117.033 23.52 118.42 26.72L109.38 30.4C108.633 28.8533 107.54 27.7333 106.1 27.04C104.66 26.3467 103.22 26 101.78 26C100.287 26 98.98 26.32 97.86 26.96C96.74 27.5467 96.18 28.32 96.18 29.28C96.18 30.1867 96.6333 30.9067 97.54 31.44C98.5 31.9733 99.78 32.4533 101.38 32.88L107.38 34.32C111.38 35.28 114.34 36.8267 116.26 38.96C118.233 41.04 119.22 43.52 119.22 46.4C119.22 48.1067 118.82 49.7333 118.02 51.28C117.22 52.8267 116.073 54.2133 114.58 55.44C113.14 56.6133 111.38 57.5467 109.3 58.24C107.273 58.9333 105.007 59.28 102.5 59.28ZM137.972 56.08L121.492 18.8H133.412L143.332 42.56H143.892L153.412 18.8H165.092L140.532 75.28H129.252L137.972 56.08ZM170.566 58.48C168.646 58.48 166.992 57.8133 165.606 56.48C164.272 55.0933 163.606 53.44 163.606 51.52C163.606 49.6 164.272 47.9733 165.606 46.64C166.992 45.3067 168.646 44.64 170.566 44.64C172.486 44.64 174.112 45.3067 175.446 46.64C176.779 47.9733 177.446 49.6 177.446 51.52C177.446 53.44 176.779 55.0933 175.446 56.48C174.112 57.8133 172.486 58.48 170.566 58.48ZM187.01 0.719998H209.41C211.863 0.719998 214.157 1.12 216.29 1.92C218.423 2.66666 220.263 3.73333 221.81 5.12C223.41 6.45333 224.663 8.02666 225.57 9.84C226.477 11.6533 226.93 13.6 226.93 15.68C226.93 18.72 226.183 21.28 224.69 23.36C223.25 25.3867 221.437 26.9333 219.25 28V28.64C222.183 29.7067 224.53 31.3867 226.29 33.68C228.103 35.92 229.01 38.72 229.01 42.08C229.01 44.5333 228.503 46.7467 227.49 48.72C226.53 50.64 225.197 52.2933 223.49 53.68C221.783 55.0667 219.783 56.1333 217.49 56.88C215.25 57.6267 212.823 58 210.21 58H187.01V0.719998ZM208.61 24.08C211.117 24.08 213.037 23.4133 214.37 22.08C215.757 20.6933 216.45 19.0667 216.45 17.2C216.45 15.3333 215.783 13.7333 214.45 12.4C213.117 11.0667 211.277 10.4 208.93 10.4H197.81V24.08H208.61ZM209.81 48.08C212.53 48.08 214.61 47.4133 216.05 46.08C217.49 44.6933 218.21 42.9333 218.21 40.8C218.21 38.6667 217.463 36.9067 215.97 35.52C214.53 34.08 212.37 33.36 209.49 33.36H197.81V48.08H209.81ZM263.163 52.88H262.523C261.296 54.8533 259.643 56.4267 257.563 57.6C255.483 58.72 253.109 59.28 250.443 59.28C245.483 59.28 241.776 57.76 239.323 54.72C236.923 51.68 235.723 47.6267 235.723 42.56V18.8H246.203V41.28C246.203 44.1067 246.816 46.2133 248.043 47.6C249.323 48.9333 251.163 49.6 253.563 49.6C255.003 49.6 256.256 49.3067 257.323 48.72C258.443 48.08 259.376 47.2533 260.123 46.24C260.923 45.1733 261.509 43.9467 261.883 42.56C262.309 41.12 262.523 39.6 262.523 38V18.8H273.003V58H263.163V52.88ZM294.3 56.08L277.82 18.8H289.74L299.66 42.56H300.22L309.74 18.8H321.42L296.86 75.28H285.58L294.3 56.08Z" fill="#368951"/>
</svg>
