<svg width="101" height="101" viewBox="0 0 101 101" fill="none" xmlns="http://www.w3.org/2000/svg">
<path d="M73.4789 32.2293H53.1664V62.1844L63.4575 51.8953C64.0483 51.334 64.835 51.0257 65.6499 51.0361C66.4648 51.0465 67.2433 51.3749 67.8196 51.9511C68.3958 52.5274 68.7242 53.306 68.7346 54.1208C68.745 54.9357 68.4367 55.7224 67.8754 56.3133L52.2504 71.9383C51.6644 72.5239 50.8699 72.8528 50.0414 72.8528C49.213 72.8528 48.4185 72.5239 47.8325 71.9383L32.2075 56.3133C31.6461 55.7224 31.3378 54.9357 31.3483 54.1208C31.3587 53.306 31.6871 52.5274 32.2633 51.9511C32.8396 51.3749 33.6181 51.0465 34.433 51.0361C35.2479 51.0257 36.0346 51.334 36.6254 51.8953L46.9164 62.1844V32.2293H26.6039C23.7041 32.2324 20.9239 33.3857 18.8734 35.4362C16.8229 37.4867 15.6695 40.2669 15.6664 43.1668V83.7918C15.6695 86.6916 16.8229 89.4718 18.8734 91.5223C20.9239 93.5728 23.7041 94.7262 26.6039 94.7293H73.4789C76.3788 94.7262 79.159 93.5728 81.2095 91.5223C83.26 89.4718 84.4133 86.6916 84.4164 83.7918V43.1668C84.4133 40.2669 83.26 37.4867 81.2095 35.4362C79.159 33.3857 76.3788 32.2324 73.4789 32.2293ZM53.1664 10.3543C53.1664 9.52547 52.8372 8.73062 52.2512 8.14457C51.6651 7.55851 50.8702 7.22927 50.0414 7.22927C49.2126 7.22927 48.4178 7.55851 47.8317 8.14457C47.2457 8.73062 46.9164 9.52547 46.9164 10.3543V32.2293H53.1664V10.3543Z" fill="white"/>
</svg>
