<svg width="100" height="100" viewBox="0 0 100 100" fill="none" xmlns="http://www.w3.org/2000/svg">
<path d="M26.5625 68.75H46.875L46.875 38.7949L36.584 49.084C35.9932 49.6453 35.2064 49.9536 34.3916 49.9432C33.5767 49.9327 32.7981 49.6044 32.2219 49.0281C31.6456 48.4519 31.3173 47.6733 31.3068 46.8584C31.2964 46.0436 31.6047 45.2568 32.166 44.666L47.791 29.041C48.377 28.4554 49.1716 28.1264 50 28.1264C50.8284 28.1264 51.623 28.4554 52.209 29.041L67.834 44.666C68.3953 45.2568 68.7036 46.0436 68.6932 46.8584C68.6827 47.6733 68.3544 48.4519 67.7781 49.0281C67.2019 49.6044 66.4233 49.9327 65.6084 49.9432C64.7936 49.9536 64.0068 49.6453 63.416 49.084L53.125 38.7949L53.125 68.75H73.4375C76.3374 68.7469 79.1175 67.5936 81.1681 65.5431C83.2186 63.4925 84.3719 60.7124 84.375 57.8125L84.375 17.1875C84.3719 14.2876 83.2186 11.5075 81.1681 9.45695C79.1175 7.40644 76.3374 6.2531 73.4375 6.25H26.5625C23.6626 6.2531 20.8825 7.40644 18.8319 9.45695C16.7814 11.5075 15.6281 14.2876 15.625 17.1875L15.625 57.8125C15.6281 60.7124 16.7814 63.4925 18.8319 65.5431C20.8825 67.5936 23.6626 68.7469 26.5625 68.75ZM46.875 90.625C46.875 91.4538 47.2042 92.2487 47.7903 92.8347C48.3763 93.4208 49.1712 93.75 50 93.75C50.8288 93.75 51.6237 93.4208 52.2097 92.8347C52.7958 92.2487 53.125 91.4538 53.125 90.625V68.75H46.875V90.625Z" fill="white"/>
</svg>
