<svg width="82" height="76" viewBox="0 0 82 76" fill="none" xmlns="http://www.w3.org/2000/svg">
<path d="M62.9164 7.03497H19.1664C18.3376 7.03497 17.5428 6.70573 16.9567 6.11968C16.3707 5.53363 16.0414 4.73877 16.0414 3.90997C16.0414 3.08117 16.3707 2.28632 16.9567 1.70027C17.5428 1.11421 18.3376 0.784973 19.1664 0.784973H62.9164C63.7452 0.784973 64.5401 1.11421 65.1262 1.70027C65.7122 2.28632 66.0414 3.08117 66.0414 3.90997C66.0414 4.73877 65.7122 5.53363 65.1262 6.11968C64.5401 6.70573 63.7452 7.03497 62.9164 7.03497ZM69.1664 16.41H12.9164C12.0876 16.41 11.2928 16.0807 10.7067 15.4947C10.1207 14.9086 9.79144 14.1138 9.79144 13.285C9.79144 12.4562 10.1207 11.6613 10.7067 11.0753C11.2928 10.4892 12.0876 10.16 12.9164 10.16H69.1664C69.9952 10.16 70.7901 10.4892 71.3762 11.0753C71.9622 11.6613 72.2914 12.4562 72.2914 13.285C72.2914 14.1138 71.9622 14.9086 71.3762 15.4947C70.7901 16.0807 69.9952 16.41 69.1664 16.41ZM72.9028 75.785H9.18012C6.85664 75.7824 4.62906 74.8582 2.98612 73.2153C1.34317 71.5724 0.419028 69.3448 0.416443 67.0213V28.2986C0.419028 25.9752 1.34317 23.7476 2.98612 22.1046C4.62906 20.4617 6.85664 19.5376 9.18012 19.535H72.9028C75.2262 19.5376 77.4538 20.4617 79.0968 22.1046C80.7397 23.7476 81.6639 25.9752 81.6664 28.2986V67.0213C81.6639 69.3448 80.7397 71.5724 79.0968 73.2153C77.4538 74.8582 75.2262 75.7824 72.9028 75.785V75.785Z" fill="white"/>
</svg>
