<svg width="100" height="100" viewBox="0 0 100 100" fill="none" xmlns="http://www.w3.org/2000/svg">
<path d="M86.1133 26.6211C86.2312 26.5523 86.3291 26.4538 86.3971 26.3354C86.4651 26.217 86.5009 26.0828 86.5009 25.9463C86.5009 25.8098 86.4651 25.6756 86.3971 25.5572C86.3291 25.4388 86.2312 25.3403 86.1133 25.2715L56.2813 7.93945C54.3725 6.83305 52.2053 6.25037 49.999 6.25037C47.7928 6.25037 45.6256 6.83305 43.7168 7.93945L13.8906 25.2715C13.7727 25.3403 13.6749 25.4388 13.6069 25.5572C13.5389 25.6756 13.5031 25.8098 13.5031 25.9463C13.5031 26.0828 13.5389 26.217 13.6069 26.3354C13.6749 26.4538 13.7727 26.5523 13.8906 26.6211L49.6094 47.6328C49.7295 47.7036 49.8664 47.7409 50.0059 47.7409C50.1453 47.7409 50.2822 47.7036 50.4024 47.6328L86.1133 26.6211ZM10.5469 31.9355C10.4278 31.8668 10.2926 31.8307 10.155 31.8309C10.0174 31.8311 9.88236 31.8676 9.76344 31.9368C9.64452 32.006 9.54598 32.1053 9.47778 32.2248C9.40957 32.3443 9.37412 32.4796 9.37502 32.6172V66.5801C9.37797 68.2167 9.80933 69.8241 10.6262 71.2424C11.4431 72.6606 12.617 73.8403 14.0313 74.6641L45.7031 93.6543C45.8218 93.7228 45.9565 93.7589 46.0936 93.759C46.2306 93.759 46.3653 93.723 46.484 93.6545C46.6028 93.586 46.7014 93.4875 46.7701 93.3689C46.8387 93.2502 46.8749 93.1156 46.875 92.9785V53.5742C46.8749 53.4372 46.8387 53.3027 46.7701 53.1841C46.7016 53.0654 46.603 52.9669 46.4844 52.8984L10.5469 31.9355ZM53.125 53.7109V92.9687C53.1252 93.1058 53.1614 93.2404 53.23 93.3591C53.2986 93.4777 53.3972 93.5763 53.516 93.6447C53.6347 93.7132 53.7694 93.7492 53.9065 93.7492C54.0435 93.7492 54.1782 93.7131 54.2969 93.6445L85.9668 74.6543C87.38 73.8316 88.5534 72.6536 89.3705 71.2372C90.1877 69.8208 90.6202 68.2153 90.625 66.5801V32.6172C90.6245 32.4803 90.5881 32.3459 90.5193 32.2275C90.4506 32.1091 90.3519 32.0109 90.2332 31.9427C90.1145 31.8744 89.98 31.8386 89.8431 31.8387C89.7062 31.8388 89.5717 31.8749 89.4531 31.9434L53.5156 53.0371C53.3973 53.1054 53.2989 53.2036 53.2304 53.3219C53.1618 53.4401 53.1255 53.5743 53.125 53.7109V53.7109Z" fill="white"/>
</svg>
