<svg width="262" height="75" viewBox="0 0 262 75" fill="none" xmlns="http://www.w3.org/2000/svg">
<path d="M39.7793 12.2959C43.1968 15.3831 45.6459 19.3949 46.83 23.8455C48.0142 28.296 47.8826 32.9945 46.4512 37.3718C45.0197 41.7491 42.3499 45.6175 38.765 48.5085C35.1801 51.3996 30.8338 53.1893 26.2526 53.6608V60.8653C26.2526 61.5117 25.9958 62.1316 25.5388 62.5887C25.0817 63.0458 24.4618 63.3025 23.8154 63.3025C23.169 63.3025 22.5491 63.0458 22.092 62.5887C21.6349 62.1316 21.3781 61.5117 21.3781 60.8653V53.6608C16.7969 53.1893 12.4507 51.3996 8.86579 48.5085C5.28087 45.6175 2.61104 41.7491 1.17962 37.3718C-0.251803 32.9945 -0.38341 28.296 0.800734 23.8455C1.98488 19.3949 4.43398 15.3831 7.85144 12.2959L19.7306 1.57202C20.8505 0.560179 22.3061 0 23.8154 0C25.3247 0 26.7803 0.560179 27.9002 1.57202L39.7793 12.2959ZM26.2526 26.7488C26.2526 26.1024 25.9958 25.4824 25.5388 25.0254C25.0817 24.5683 24.4618 24.3115 23.8154 24.3115C23.169 24.3115 22.5491 24.5683 22.092 25.0254C21.6349 25.4824 21.3781 26.1024 21.3781 26.7488V48.7522C22.9963 48.9608 24.6345 48.9608 26.2526 48.7522V26.7488Z" fill="#3C7C50"/>
<path d="M72.5669 19.776V27.744H86.3429V33.888H72.5669V41.856H87.8789V48H66.0869V13.632H87.8789V19.776H72.5669ZM106.862 45.504H106.478C105.742 46.4 104.846 47.168 103.79 47.808C102.766 48.448 101.438 48.768 99.8057 48.768C98.5897 48.768 97.4377 48.56 96.3497 48.144C95.2937 47.76 94.3657 47.216 93.5657 46.512C92.7657 45.808 92.1417 44.96 91.6937 43.968C91.2457 42.976 91.0217 41.888 91.0217 40.704C91.0217 39.488 91.2617 38.4 91.7417 37.44C92.2217 36.448 92.8937 35.6 93.7577 34.896C94.6217 34.192 95.6297 33.664 96.7817 33.312C97.9657 32.928 99.2457 32.736 100.622 32.736C102.158 32.736 103.422 32.864 104.414 33.12C105.406 33.344 106.222 33.584 106.862 33.84V33.12C106.862 31.872 106.366 30.848 105.374 30.048C104.382 29.216 103.15 28.8 101.678 28.8C99.5017 28.8 97.6617 29.712 96.1577 31.536L91.5977 28.416C94.0937 25.28 97.5017 23.712 101.822 23.712C105.47 23.712 108.254 24.576 110.174 26.304C112.094 28 113.054 30.528 113.054 33.888V48H106.862V45.504ZM106.862 38.448C106.126 38.096 105.358 37.824 104.558 37.632C103.79 37.408 102.942 37.296 102.014 37.296C100.51 37.296 99.3417 37.632 98.5097 38.304C97.7097 38.944 97.3097 39.744 97.3097 40.704C97.3097 41.664 97.6937 42.432 98.4617 43.008C99.2617 43.584 100.174 43.872 101.198 43.872C102.03 43.872 102.798 43.728 103.502 43.44C104.206 43.12 104.798 42.72 105.278 42.24C105.79 41.728 106.174 41.152 106.43 40.512C106.718 39.84 106.862 39.152 106.862 38.448ZM127.131 48.768C125.595 48.768 124.219 48.576 123.003 48.192C121.819 47.808 120.779 47.312 119.883 46.704C119.019 46.064 118.283 45.344 117.675 44.544C117.067 43.712 116.603 42.88 116.283 42.048L121.899 39.648C122.443 40.864 123.163 41.776 124.059 42.384C124.987 42.96 126.011 43.248 127.131 43.248C128.283 43.248 129.195 43.04 129.867 42.624C130.539 42.208 130.875 41.712 130.875 41.136C130.875 40.496 130.587 39.984 130.011 39.6C129.467 39.184 128.507 38.816 127.131 38.496L123.819 37.776C123.083 37.616 122.315 37.36 121.515 37.008C120.747 36.656 120.043 36.208 119.403 35.664C118.763 35.12 118.235 34.464 117.819 33.696C117.403 32.928 117.195 32.032 117.195 31.008C117.195 29.856 117.435 28.832 117.915 27.936C118.427 27.04 119.115 26.288 119.979 25.68C120.843 25.04 121.851 24.56 123.003 24.24C124.187 23.888 125.451 23.712 126.795 23.712C129.035 23.712 131.035 24.16 132.795 25.056C134.555 25.92 135.851 27.312 136.683 29.232L131.259 31.44C130.811 30.512 130.155 29.84 129.291 29.424C128.427 29.008 127.563 28.8 126.699 28.8C125.803 28.8 125.019 28.992 124.347 29.376C123.675 29.728 123.339 30.192 123.339 30.768C123.339 31.312 123.611 31.744 124.155 32.064C124.731 32.384 125.499 32.672 126.459 32.928L130.059 33.792C132.459 34.368 134.235 35.296 135.387 36.576C136.571 37.824 137.163 39.312 137.163 41.04C137.163 42.064 136.923 43.04 136.443 43.968C135.963 44.896 135.275 45.728 134.379 46.464C133.515 47.168 132.459 47.728 131.211 48.144C129.995 48.56 128.635 48.768 127.131 48.768ZM148.414 46.848L138.526 24.48H145.678L151.63 38.736H151.966L157.678 24.48H164.686L149.95 58.368H143.182L148.414 46.848ZM167.97 48.288C166.818 48.288 165.826 47.888 164.994 47.088C164.194 46.256 163.794 45.264 163.794 44.112C163.794 42.96 164.194 41.984 164.994 41.184C165.826 40.384 166.818 39.984 167.97 39.984C169.122 39.984 170.098 40.384 170.898 41.184C171.698 41.984 172.098 42.96 172.098 44.112C172.098 45.264 171.698 46.256 170.898 47.088C170.098 47.888 169.122 48.288 167.97 48.288ZM177.837 13.632H191.277C192.749 13.632 194.125 13.872 195.405 14.352C196.685 14.8 197.789 15.44 198.717 16.272C199.677 17.072 200.429 18.016 200.973 19.104C201.517 20.192 201.789 21.36 201.789 22.608C201.789 24.432 201.341 25.968 200.445 27.216C199.581 28.432 198.493 29.36 197.181 30V30.384C198.941 31.024 200.349 32.032 201.405 33.408C202.493 34.752 203.037 36.432 203.037 38.448C203.037 39.92 202.733 41.248 202.125 42.432C201.549 43.584 200.749 44.576 199.725 45.408C198.701 46.24 197.501 46.88 196.125 47.328C194.781 47.776 193.325 48 191.757 48H177.837V13.632ZM190.797 27.648C192.301 27.648 193.453 27.248 194.253 26.448C195.085 25.616 195.501 24.64 195.501 23.52C195.501 22.4 195.101 21.44 194.301 20.64C193.501 19.84 192.397 19.44 190.989 19.44H184.317V27.648H190.797ZM191.517 42.048C193.149 42.048 194.397 41.648 195.261 40.848C196.125 40.016 196.557 38.96 196.557 37.68C196.557 36.4 196.109 35.344 195.213 34.512C194.349 33.648 193.053 33.216 191.325 33.216H184.317V42.048H191.517ZM223.528 44.928H223.144C222.408 46.112 221.416 47.056 220.168 47.76C218.92 48.432 217.496 48.768 215.896 48.768C212.92 48.768 210.696 47.856 209.224 46.032C207.784 44.208 207.064 41.776 207.064 38.736V24.48H213.352V37.968C213.352 39.664 213.72 40.928 214.456 41.76C215.224 42.56 216.328 42.96 217.768 42.96C218.632 42.96 219.384 42.784 220.024 42.432C220.696 42.048 221.256 41.552 221.704 40.944C222.184 40.304 222.536 39.568 222.76 38.736C223.016 37.872 223.144 36.96 223.144 36V24.48H229.432V48H223.528V44.928ZM242.211 46.848L232.323 24.48H239.475L245.427 38.736H245.763L251.475 24.48H258.483L243.747 58.368H236.979L242.211 46.848Z" fill="#3C7C50"/>
<path d="M64.741 66.504C64.741 66.9733 64.5357 67.3693 64.125 67.692C63.7143 68.0147 63.1973 68.176 62.574 68.176C62.0313 68.176 61.5547 68.0367 61.144 67.758C60.7333 67.472 60.44 67.098 60.264 66.636L61.166 66.251C61.298 66.5737 61.4887 66.8267 61.738 67.01C61.9947 67.186 62.2733 67.274 62.574 67.274C62.8967 67.274 63.1643 67.2043 63.377 67.065C63.597 66.9257 63.707 66.7607 63.707 66.57C63.707 66.2253 63.443 65.9723 62.915 65.811L61.991 65.58C60.9423 65.316 60.418 64.81 60.418 64.062C60.418 63.5707 60.616 63.1783 61.012 62.885C61.4153 62.5843 61.9287 62.434 62.552 62.434C63.0287 62.434 63.4577 62.5477 63.839 62.775C64.2277 63.0023 64.499 63.3067 64.653 63.688L63.751 64.062C63.6483 63.8347 63.4797 63.6587 63.245 63.534C63.0177 63.402 62.761 63.336 62.475 63.336C62.211 63.336 61.9727 63.402 61.76 63.534C61.5547 63.666 61.452 63.8273 61.452 64.018C61.452 64.326 61.7417 64.546 62.321 64.678L63.135 64.887C64.2057 65.151 64.741 65.69 64.741 66.504ZM66.8771 60.751C66.8771 60.949 66.8075 61.1177 66.6681 61.257C66.5288 61.3963 66.3601 61.466 66.1621 61.466C65.9641 61.466 65.7955 61.3963 65.6561 61.257C65.5168 61.1177 65.4471 60.949 65.4471 60.751C65.4471 60.553 65.5168 60.3843 65.6561 60.245C65.7955 60.1057 65.9641 60.036 66.1621 60.036C66.3601 60.036 66.5288 60.1057 66.6681 60.245C66.8075 60.3843 66.8771 60.553 66.8771 60.751ZM66.6681 62.61V68H65.6561V62.61H66.6681ZM72.1101 66.504C72.1101 66.9733 71.9048 67.3693 71.4941 67.692C71.0835 68.0147 70.5665 68.176 69.9431 68.176C69.4005 68.176 68.9238 68.0367 68.5131 67.758C68.1025 67.472 67.8091 67.098 67.6331 66.636L68.5351 66.251C68.6671 66.5737 68.8578 66.8267 69.1071 67.01C69.3638 67.186 69.6425 67.274 69.9431 67.274C70.2658 67.274 70.5335 67.2043 70.7461 67.065C70.9661 66.9257 71.0761 66.7607 71.0761 66.57C71.0761 66.2253 70.8121 65.9723 70.2841 65.811L69.3601 65.58C68.3115 65.316 67.7871 64.81 67.7871 64.062C67.7871 63.5707 67.9851 63.1783 68.3811 62.885C68.7845 62.5843 69.2978 62.434 69.9211 62.434C70.3978 62.434 70.8268 62.5477 71.2081 62.775C71.5968 63.0023 71.8681 63.3067 72.0221 63.688L71.1201 64.062C71.0175 63.8347 70.8488 63.6587 70.6141 63.534C70.3868 63.402 70.1301 63.336 69.8441 63.336C69.5801 63.336 69.3418 63.402 69.1291 63.534C68.9238 63.666 68.8211 63.8273 68.8211 64.018C68.8211 64.326 69.1108 64.546 69.6901 64.678L70.5041 64.887C71.5748 65.151 72.1101 65.69 72.1101 66.504ZM75.0713 68.088C74.6313 68.088 74.2646 67.9523 73.9713 67.681C73.6853 67.4097 73.5386 67.032 73.5313 66.548V63.534H72.5853V62.61H73.5313V60.96H74.5433V62.61H75.8633V63.534H74.5433V66.218C74.5433 66.5773 74.613 66.823 74.7523 66.955C74.8916 67.0797 75.0493 67.142 75.2253 67.142C75.306 67.142 75.383 67.1347 75.4563 67.12C75.537 67.098 75.6103 67.0723 75.6763 67.043L75.9953 67.945C75.7313 68.0403 75.4233 68.088 75.0713 68.088ZM79.1923 68.176C78.4003 68.176 77.7476 67.9047 77.2343 67.362C76.7209 66.8193 76.4643 66.1337 76.4643 65.305C76.4643 64.4837 76.7136 63.8017 77.2123 63.259C77.7109 62.709 78.3489 62.434 79.1263 62.434C79.9256 62.434 80.5599 62.6943 81.0293 63.215C81.5059 63.7283 81.7443 64.4507 81.7443 65.382L81.7333 65.492H77.4983C77.5129 66.02 77.6889 66.4453 78.0263 66.768C78.3636 67.0907 78.7669 67.252 79.2363 67.252C79.8816 67.252 80.3876 66.9293 80.7543 66.284L81.6562 66.724C81.4143 67.1787 81.0769 67.5343 80.6443 67.791C80.2189 68.0477 79.7349 68.176 79.1923 68.176ZM77.5753 64.656H80.6663C80.6369 64.282 80.4829 63.974 80.2043 63.732C79.9329 63.4827 79.5663 63.358 79.1043 63.358C78.7229 63.358 78.3929 63.4753 78.1143 63.71C77.8429 63.9447 77.6633 64.26 77.5753 64.656ZM83.6817 68H82.6697V62.61H83.6377V63.358H83.6817C83.8357 63.094 84.0704 62.874 84.3857 62.698C84.7084 62.522 85.0274 62.434 85.3427 62.434C85.7387 62.434 86.087 62.5257 86.3877 62.709C86.6884 62.8923 86.9084 63.1453 87.0477 63.468C87.495 62.7787 88.1147 62.434 88.9067 62.434C89.53 62.434 90.0104 62.6247 90.3477 63.006C90.685 63.3873 90.8537 63.93 90.8537 64.634V68H89.8417V64.788C89.8417 64.282 89.75 63.919 89.5667 63.699C89.3834 63.4717 89.0754 63.358 88.6427 63.358C88.254 63.358 87.9277 63.523 87.6637 63.853C87.3997 64.183 87.2677 64.5717 87.2677 65.019V68H86.2557V64.788C86.2557 64.282 86.164 63.919 85.9807 63.699C85.7974 63.4717 85.4894 63.358 85.0567 63.358C84.668 63.358 84.3417 63.523 84.0777 63.853C83.8137 64.183 83.6817 64.5717 83.6817 65.019V68ZM95.7629 60.751C95.7629 60.949 95.6932 61.1177 95.5539 61.257C95.4146 61.3963 95.2459 61.466 95.0479 61.466C94.8499 61.466 94.6812 61.3963 94.5419 61.257C94.4026 61.1177 94.3329 60.949 94.3329 60.751C94.3329 60.553 94.4026 60.3843 94.5419 60.245C94.6812 60.1057 94.8499 60.036 95.0479 60.036C95.2459 60.036 95.4146 60.1057 95.5539 60.245C95.6932 60.3843 95.7629 60.553 95.7629 60.751ZM95.5539 62.61V68H94.5419V62.61H95.5539ZM96.8709 62.61H97.8389V63.358H97.8829C98.0369 63.094 98.2715 62.874 98.5869 62.698C98.9095 62.522 99.2432 62.434 99.5879 62.434C100.248 62.434 100.754 62.6247 101.106 63.006C101.465 63.38 101.645 63.9153 101.645 64.612V68H100.633V64.678C100.611 63.798 100.167 63.358 99.3019 63.358C98.8985 63.358 98.5612 63.523 98.2899 63.853C98.0185 64.1757 97.8829 64.5643 97.8829 65.019V68H96.8709V62.61ZM105.211 60.036C105.578 60.036 105.879 60.0983 106.113 60.223L105.838 61.114C105.662 61.026 105.464 60.982 105.244 60.982C104.995 60.982 104.79 61.07 104.628 61.246C104.474 61.4147 104.397 61.642 104.397 61.928V62.61H105.805V63.534H104.397V68H103.385V63.534H102.373V62.61H103.385V61.829C103.385 61.2937 103.554 60.861 103.891 60.531C104.236 60.201 104.676 60.036 105.211 60.036ZM106.134 65.305C106.134 64.4763 106.395 63.7907 106.915 63.248C107.443 62.7053 108.107 62.434 108.906 62.434C109.706 62.434 110.366 62.7053 110.886 63.248C111.414 63.7907 111.678 64.4763 111.678 65.305C111.678 66.141 111.414 66.8267 110.886 67.362C110.366 67.9047 109.706 68.176 108.906 68.176C108.107 68.176 107.443 67.9047 106.915 67.362C106.395 66.8193 106.134 66.1337 106.134 65.305ZM107.146 65.305C107.146 65.8843 107.315 66.3537 107.652 66.713C107.99 67.0723 108.408 67.252 108.906 67.252C109.405 67.252 109.823 67.0723 110.16 66.713C110.498 66.3537 110.666 65.8843 110.666 65.305C110.666 64.733 110.498 64.2673 110.16 63.908C109.816 63.5413 109.398 63.358 108.906 63.358C108.415 63.358 107.997 63.5413 107.652 63.908C107.315 64.2673 107.146 64.733 107.146 65.305ZM113.502 68H112.49V62.61H113.458V63.49H113.502C113.605 63.204 113.814 62.962 114.129 62.764C114.452 62.5587 114.767 62.456 115.075 62.456C115.368 62.456 115.618 62.5 115.823 62.588L115.515 63.567C115.39 63.5157 115.192 63.49 114.921 63.49C114.54 63.49 114.206 63.644 113.92 63.952C113.641 64.26 113.502 64.6193 113.502 65.03V68ZM117.498 68H116.486V62.61H117.454V63.358H117.498C117.652 63.094 117.887 62.874 118.202 62.698C118.525 62.522 118.844 62.434 119.159 62.434C119.555 62.434 119.903 62.5257 120.204 62.709C120.505 62.8923 120.725 63.1453 120.864 63.468C121.311 62.7787 121.931 62.434 122.723 62.434C123.346 62.434 123.827 62.6247 124.164 63.006C124.501 63.3873 124.67 63.93 124.67 64.634V68H123.658V64.788C123.658 64.282 123.566 63.919 123.383 63.699C123.2 63.4717 122.892 63.358 122.459 63.358C122.07 63.358 121.744 63.523 121.48 63.853C121.216 64.183 121.084 64.5717 121.084 65.019V68H120.072V64.788C120.072 64.282 119.98 63.919 119.797 63.699C119.614 63.4717 119.306 63.358 118.873 63.358C118.484 63.358 118.158 63.523 117.894 63.853C117.63 64.183 117.498 64.5717 117.498 65.019V68ZM126.537 66.35C126.537 66.614 126.647 66.834 126.867 67.01C127.094 67.186 127.358 67.274 127.659 67.274C128.084 67.274 128.462 67.1163 128.792 66.801C129.129 66.4857 129.298 66.1153 129.298 65.69C128.982 65.4407 128.542 65.316 127.978 65.316C127.567 65.316 127.222 65.415 126.944 65.613C126.672 65.811 126.537 66.0567 126.537 66.35ZM127.846 62.434C128.594 62.434 129.184 62.6357 129.617 63.039C130.049 63.435 130.266 63.9813 130.266 64.678V68H129.298V67.252H129.254C128.836 67.868 128.278 68.176 127.582 68.176C126.988 68.176 126.489 68 126.086 67.648C125.69 67.296 125.492 66.856 125.492 66.328C125.492 65.7707 125.701 65.327 126.119 64.997C126.544 64.667 127.109 64.502 127.813 64.502C128.414 64.502 128.909 64.612 129.298 64.832V64.601C129.298 64.249 129.158 63.952 128.88 63.71C128.601 63.4607 128.275 63.336 127.901 63.336C127.336 63.336 126.889 63.5743 126.559 64.051L125.668 63.49C126.159 62.786 126.885 62.434 127.846 62.434ZM135.478 66.504C135.478 66.9733 135.273 67.3693 134.862 67.692C134.452 68.0147 133.935 68.176 133.311 68.176C132.769 68.176 132.292 68.0367 131.881 67.758C131.471 67.472 131.177 67.098 131.001 66.636L131.903 66.251C132.035 66.5737 132.226 66.8267 132.475 67.01C132.732 67.186 133.011 67.274 133.311 67.274C133.634 67.274 133.902 67.2043 134.114 67.065C134.334 66.9257 134.444 66.7607 134.444 66.57C134.444 66.2253 134.18 65.9723 133.652 65.811L132.728 65.58C131.68 65.316 131.155 64.81 131.155 64.062C131.155 63.5707 131.353 63.1783 131.749 62.885C132.153 62.5843 132.666 62.434 133.289 62.434C133.766 62.434 134.195 62.5477 134.576 62.775C134.965 63.0023 135.236 63.3067 135.39 63.688L134.488 64.062C134.386 63.8347 134.217 63.6587 133.982 63.534C133.755 63.402 133.498 63.336 133.212 63.336C132.948 63.336 132.71 63.402 132.497 63.534C132.292 63.666 132.189 63.8273 132.189 64.018C132.189 64.326 132.479 64.546 133.058 64.678L133.872 64.887C134.943 65.151 135.478 65.69 135.478 66.504ZM137.614 60.751C137.614 60.949 137.545 61.1177 137.405 61.257C137.266 61.3963 137.097 61.466 136.899 61.466C136.701 61.466 136.533 61.3963 136.393 61.257C136.254 61.1177 136.184 60.949 136.184 60.751C136.184 60.553 136.254 60.3843 136.393 60.245C136.533 60.1057 136.701 60.036 136.899 60.036C137.097 60.036 137.266 60.1057 137.405 60.245C137.545 60.3843 137.614 60.553 137.614 60.751ZM137.405 62.61V68H136.393V62.61H137.405ZM142.151 68H141.139V62.61H142.107V63.358H142.151C142.305 63.094 142.54 62.874 142.855 62.698C143.178 62.522 143.497 62.434 143.812 62.434C144.208 62.434 144.557 62.5257 144.857 62.709C145.158 62.8923 145.378 63.1453 145.517 63.468C145.965 62.7787 146.584 62.434 147.376 62.434C148 62.434 148.48 62.6247 148.817 63.006C149.155 63.3873 149.323 63.93 149.323 64.634V68H148.311V64.788C148.311 64.282 148.22 63.919 148.036 63.699C147.853 63.4717 147.545 63.358 147.112 63.358C146.724 63.358 146.397 63.523 146.133 63.853C145.869 64.183 145.737 64.5717 145.737 65.019V68H144.725V64.788C144.725 64.282 144.634 63.919 144.45 63.699C144.267 63.4717 143.959 63.358 143.526 63.358C143.138 63.358 142.811 63.523 142.547 63.853C142.283 64.183 142.151 64.5717 142.151 65.019V68ZM151.19 66.35C151.19 66.614 151.3 66.834 151.52 67.01C151.747 67.186 152.011 67.274 152.312 67.274C152.737 67.274 153.115 67.1163 153.445 66.801C153.782 66.4857 153.951 66.1153 153.951 65.69C153.636 65.4407 153.196 65.316 152.631 65.316C152.22 65.316 151.876 65.415 151.597 65.613C151.326 65.811 151.19 66.0567 151.19 66.35ZM152.499 62.434C153.247 62.434 153.837 62.6357 154.27 63.039C154.703 63.435 154.919 63.9813 154.919 64.678V68H153.951V67.252H153.907C153.489 67.868 152.932 68.176 152.235 68.176C151.641 68.176 151.142 68 150.739 67.648C150.343 67.296 150.145 66.856 150.145 66.328C150.145 65.7707 150.354 65.327 150.772 64.997C151.197 64.667 151.762 64.502 152.466 64.502C153.067 64.502 153.562 64.612 153.951 64.832V64.601C153.951 64.249 153.812 63.952 153.533 63.71C153.254 63.4607 152.928 63.336 152.554 63.336C151.989 63.336 151.542 63.5743 151.212 64.051L150.321 63.49C150.812 62.786 151.538 62.434 152.499 62.434ZM156.06 62.61H157.028V63.358H157.072C157.226 63.094 157.461 62.874 157.776 62.698C158.099 62.522 158.433 62.434 158.777 62.434C159.437 62.434 159.943 62.6247 160.295 63.006C160.655 63.38 160.834 63.9153 160.834 64.612V68H159.822V64.678C159.8 63.798 159.357 63.358 158.491 63.358C158.088 63.358 157.751 63.523 157.479 63.853C157.208 64.1757 157.072 64.5643 157.072 65.019V68H156.06V62.61ZM162.706 66.35C162.706 66.614 162.816 66.834 163.036 67.01C163.263 67.186 163.527 67.274 163.828 67.274C164.253 67.274 164.631 67.1163 164.961 66.801C165.298 66.4857 165.467 66.1153 165.467 65.69C165.151 65.4407 164.711 65.316 164.147 65.316C163.736 65.316 163.391 65.415 163.113 65.613C162.841 65.811 162.706 66.0567 162.706 66.35ZM164.015 62.434C164.763 62.434 165.353 62.6357 165.786 63.039C166.218 63.435 166.435 63.9813 166.435 64.678V68H165.467V67.252H165.423C165.005 67.868 164.447 68.176 163.751 68.176C163.157 68.176 162.658 68 162.255 67.648C161.859 67.296 161.661 66.856 161.661 66.328C161.661 65.7707 161.87 65.327 162.288 64.997C162.713 64.667 163.278 64.502 163.982 64.502C164.583 64.502 165.078 64.612 165.467 64.832V64.601C165.467 64.249 165.327 63.952 165.049 63.71C164.77 63.4607 164.444 63.336 164.07 63.336C163.505 63.336 163.058 63.5743 162.728 64.051L161.837 63.49C162.328 62.786 163.054 62.434 164.015 62.434ZM168.885 60.751C168.885 60.949 168.815 61.1177 168.676 61.257C168.537 61.3963 168.368 61.466 168.17 61.466C167.972 61.466 167.803 61.3963 167.664 61.257C167.525 61.1177 167.455 60.949 167.455 60.751C167.455 60.553 167.525 60.3843 167.664 60.245C167.803 60.1057 167.972 60.036 168.17 60.036C168.368 60.036 168.537 60.1057 168.676 60.245C168.815 60.3843 168.885 60.553 168.885 60.751ZM167.059 70.486C166.839 70.486 166.641 70.4493 166.465 70.376L166.729 69.496C166.846 69.54 166.945 69.562 167.026 69.562C167.437 69.562 167.649 69.309 167.664 68.803V62.61H168.676V68.649C168.676 69.8737 168.137 70.486 167.059 70.486ZM172.359 68.176C171.567 68.176 170.915 67.9047 170.401 67.362C169.888 66.8193 169.631 66.1337 169.631 65.305C169.631 64.4837 169.881 63.8017 170.379 63.259C170.878 62.709 171.516 62.434 172.293 62.434C173.093 62.434 173.727 62.6943 174.196 63.215C174.673 63.7283 174.911 64.4507 174.911 65.382L174.9 65.492H170.665C170.68 66.02 170.856 66.4453 171.193 66.768C171.531 67.0907 171.934 67.252 172.403 67.252C173.049 67.252 173.555 66.9293 173.921 66.284L174.823 66.724C174.581 67.1787 174.244 67.5343 173.811 67.791C173.386 68.0477 172.902 68.176 172.359 68.176ZM170.742 64.656H173.833C173.804 64.282 173.65 63.974 173.371 63.732C173.1 63.4827 172.733 63.358 172.271 63.358C171.89 63.358 171.56 63.4753 171.281 63.71C171.01 63.9447 170.83 64.26 170.742 64.656ZM176.849 68H175.837V62.61H176.805V63.358H176.849C177.003 63.094 177.237 62.874 177.553 62.698C177.875 62.522 178.194 62.434 178.51 62.434C178.906 62.434 179.254 62.5257 179.555 62.709C179.855 62.8923 180.075 63.1453 180.215 63.468C180.662 62.7787 181.282 62.434 182.074 62.434C182.697 62.434 183.177 62.6247 183.515 63.006C183.852 63.3873 184.021 63.93 184.021 64.634V68H183.009V64.788C183.009 64.282 182.917 63.919 182.734 63.699C182.55 63.4717 182.242 63.358 181.81 63.358C181.421 63.358 181.095 63.523 180.831 63.853C180.567 64.183 180.435 64.5717 180.435 65.019V68H179.423V64.788C179.423 64.282 179.331 63.919 179.148 63.699C178.964 63.4717 178.656 63.358 178.224 63.358C177.835 63.358 177.509 63.523 177.245 63.853C176.981 64.183 176.849 64.5717 176.849 65.019V68ZM187.624 68.176C186.832 68.176 186.179 67.9047 185.666 67.362C185.153 66.8193 184.896 66.1337 184.896 65.305C184.896 64.4837 185.145 63.8017 185.644 63.259C186.143 62.709 186.781 62.434 187.558 62.434C188.357 62.434 188.992 62.6943 189.461 63.215C189.938 63.7283 190.176 64.4507 190.176 65.382L190.165 65.492H185.93C185.945 66.02 186.121 66.4453 186.458 66.768C186.795 67.0907 187.199 67.252 187.668 67.252C188.313 67.252 188.819 66.9293 189.186 66.284L190.088 66.724C189.846 67.1787 189.509 67.5343 189.076 67.791C188.651 68.0477 188.167 68.176 187.624 68.176ZM186.007 64.656H189.098C189.069 64.282 188.915 63.974 188.636 63.732C188.365 63.4827 187.998 63.358 187.536 63.358C187.155 63.358 186.825 63.4753 186.546 63.71C186.275 63.9447 186.095 64.26 186.007 64.656ZM191.101 62.61H192.069V63.358H192.113C192.267 63.094 192.502 62.874 192.817 62.698C193.14 62.522 193.474 62.434 193.818 62.434C194.478 62.434 194.984 62.6247 195.336 63.006C195.696 63.38 195.875 63.9153 195.875 64.612V68H194.863V64.678C194.841 63.798 194.398 63.358 193.532 63.358C193.129 63.358 192.792 63.523 192.52 63.853C192.249 64.1757 192.113 64.5643 192.113 65.019V68H191.101V62.61ZM203.605 66.504C203.605 66.9733 203.4 67.3693 202.989 67.692C202.579 68.0147 202.062 68.176 201.438 68.176C200.896 68.176 200.419 68.0367 200.008 67.758C199.598 67.472 199.304 67.098 199.128 66.636L200.03 66.251C200.162 66.5737 200.353 66.8267 200.602 67.01C200.859 67.186 201.138 67.274 201.438 67.274C201.761 67.274 202.029 67.2043 202.241 67.065C202.461 66.9257 202.571 66.7607 202.571 66.57C202.571 66.2253 202.307 65.9723 201.779 65.811L200.855 65.58C199.807 65.316 199.282 64.81 199.282 64.062C199.282 63.5707 199.48 63.1783 199.876 62.885C200.28 62.5843 200.793 62.434 201.416 62.434C201.893 62.434 202.322 62.5477 202.703 62.775C203.092 63.0023 203.363 63.3067 203.517 63.688L202.615 64.062C202.513 63.8347 202.344 63.6587 202.109 63.534C201.882 63.402 201.625 63.336 201.339 63.336C201.075 63.336 200.837 63.402 200.624 63.534C200.419 63.666 200.316 63.8273 200.316 64.018C200.316 64.326 200.606 64.546 201.185 64.678L201.999 64.887C203.07 65.151 203.605 65.69 203.605 66.504ZM206.566 68.088C206.126 68.088 205.76 67.9523 205.466 67.681C205.18 67.4097 205.034 67.032 205.026 66.548V63.534H204.08V62.61H205.026V60.96H206.038V62.61H207.358V63.534H206.038V66.218C206.038 66.5773 206.108 66.823 206.247 66.955C206.387 67.0797 206.544 67.142 206.72 67.142C206.801 67.142 206.878 67.1347 206.951 67.12C207.032 67.098 207.105 67.0723 207.171 67.043L207.49 67.945C207.226 68.0403 206.918 68.088 206.566 68.088ZM207.959 65.305C207.959 64.4763 208.22 63.7907 208.74 63.248C209.268 62.7053 209.932 62.434 210.731 62.434C211.531 62.434 212.191 62.7053 212.711 63.248C213.239 63.7907 213.503 64.4763 213.503 65.305C213.503 66.141 213.239 66.8267 212.711 67.362C212.191 67.9047 211.531 68.176 210.731 68.176C209.932 68.176 209.268 67.9047 208.74 67.362C208.22 66.8193 207.959 66.1337 207.959 65.305ZM208.971 65.305C208.971 65.8843 209.14 66.3537 209.477 66.713C209.815 67.0723 210.233 67.252 210.731 67.252C211.23 67.252 211.648 67.0723 211.985 66.713C212.323 66.3537 212.491 65.8843 212.491 65.305C212.491 64.733 212.323 64.2673 211.985 63.908C211.641 63.5413 211.223 63.358 210.731 63.358C210.24 63.358 209.822 63.5413 209.477 63.908C209.14 64.2673 208.971 64.733 208.971 65.305ZM219.11 68H217.889L216.206 65.459L215.381 66.273V68H214.369V60.124H215.381V64.975L217.713 62.61H219.011V62.654L216.91 64.744L219.11 67.956V68ZM224.952 68.176C224.556 68.176 224.193 68.0917 223.863 67.923C223.541 67.7543 223.291 67.5307 223.115 67.252H223.071V68H222.103V60.124H223.115V62.61L223.071 63.358H223.115C223.291 63.0793 223.541 62.8557 223.863 62.687C224.193 62.5183 224.556 62.434 224.952 62.434C225.664 62.434 226.265 62.7127 226.756 63.27C227.262 63.8347 227.515 64.513 227.515 65.305C227.515 66.1043 227.262 66.7827 226.756 67.34C226.265 67.8973 225.664 68.176 224.952 68.176ZM224.787 67.252C225.271 67.252 225.678 67.0687 226.008 66.702C226.338 66.3427 226.503 65.877 226.503 65.305C226.503 64.7403 226.338 64.2747 226.008 63.908C225.678 63.5413 225.271 63.358 224.787 63.358C224.296 63.358 223.885 63.5413 223.555 63.908C223.233 64.2747 223.071 64.7403 223.071 65.305C223.071 65.877 223.233 66.3463 223.555 66.713C223.885 67.0723 224.296 67.252 224.787 67.252ZM229.178 66.35C229.178 66.614 229.288 66.834 229.508 67.01C229.736 67.186 230 67.274 230.3 67.274C230.726 67.274 231.103 67.1163 231.433 66.801C231.771 66.4857 231.939 66.1153 231.939 65.69C231.624 65.4407 231.184 65.316 230.619 65.316C230.209 65.316 229.864 65.415 229.585 65.613C229.314 65.811 229.178 66.0567 229.178 66.35ZM230.487 62.434C231.235 62.434 231.826 62.6357 232.258 63.039C232.691 63.435 232.907 63.9813 232.907 64.678V68H231.939V67.252H231.895C231.477 67.868 230.92 68.176 230.223 68.176C229.629 68.176 229.131 68 228.727 67.648C228.331 67.296 228.133 66.856 228.133 66.328C228.133 65.7707 228.342 65.327 228.76 64.997C229.186 64.667 229.75 64.502 230.454 64.502C231.056 64.502 231.551 64.612 231.939 64.832V64.601C231.939 64.249 231.8 63.952 231.521 63.71C231.243 63.4607 230.916 63.336 230.542 63.336C229.978 63.336 229.53 63.5743 229.2 64.051L228.309 63.49C228.801 62.786 229.527 62.434 230.487 62.434ZM235.061 68H234.049V62.61H235.017V63.49H235.061C235.163 63.204 235.372 62.962 235.688 62.764C236.01 62.5587 236.326 62.456 236.634 62.456C236.927 62.456 237.176 62.5 237.382 62.588L237.074 63.567C236.949 63.5157 236.751 63.49 236.48 63.49C236.098 63.49 235.765 63.644 235.479 63.952C235.2 64.26 235.061 64.6193 235.061 65.03V68ZM238.567 66.35C238.567 66.614 238.677 66.834 238.897 67.01C239.124 67.186 239.388 67.274 239.689 67.274C240.114 67.274 240.492 67.1163 240.822 66.801C241.159 66.4857 241.328 66.1153 241.328 65.69C241.013 65.4407 240.573 65.316 240.008 65.316C239.597 65.316 239.253 65.415 238.974 65.613C238.703 65.811 238.567 66.0567 238.567 66.35ZM239.876 62.434C240.624 62.434 241.214 62.6357 241.647 63.039C242.08 63.435 242.296 63.9813 242.296 64.678V68H241.328V67.252H241.284C240.866 67.868 240.309 68.176 239.612 68.176C239.018 68.176 238.519 68 238.116 67.648C237.72 67.296 237.522 66.856 237.522 66.328C237.522 65.7707 237.731 65.327 238.149 64.997C238.574 64.667 239.139 64.502 239.843 64.502C240.444 64.502 240.939 64.612 241.328 64.832V64.601C241.328 64.249 241.189 63.952 240.91 63.71C240.631 63.4607 240.305 63.336 239.931 63.336C239.366 63.336 238.919 63.5743 238.589 64.051L237.698 63.49C238.189 62.786 238.915 62.434 239.876 62.434ZM243.437 62.61H244.405V63.358H244.449C244.603 63.094 244.838 62.874 245.153 62.698C245.476 62.522 245.81 62.434 246.154 62.434C246.814 62.434 247.32 62.6247 247.672 63.006C248.032 63.38 248.211 63.9153 248.211 64.612V68H247.199V64.678C247.177 63.798 246.734 63.358 245.868 63.358C245.465 63.358 245.128 63.523 244.856 63.853C244.585 64.1757 244.449 64.5643 244.449 65.019V68H243.437V62.61ZM251.765 67.252C252.264 67.252 252.671 67.0723 252.986 66.713C253.316 66.3537 253.481 65.8843 253.481 65.305C253.481 64.7403 253.316 64.2747 252.986 63.908C252.664 63.5413 252.257 63.358 251.765 63.358C251.281 63.358 250.874 63.5413 250.544 63.908C250.214 64.2747 250.049 64.7403 250.049 65.305C250.049 65.877 250.214 66.3427 250.544 66.702C250.874 67.0687 251.281 67.252 251.765 67.252ZM251.732 70.552C251.432 70.552 251.149 70.5117 250.885 70.431C250.621 70.3577 250.379 70.2513 250.159 70.112C249.947 69.9727 249.763 69.8077 249.609 69.617C249.455 69.4263 249.338 69.2137 249.257 68.979L250.214 68.583C250.324 68.8983 250.515 69.1513 250.786 69.342C251.058 69.5327 251.373 69.628 251.732 69.628C252.282 69.628 252.711 69.463 253.019 69.133C253.327 68.803 253.481 68.3483 253.481 67.769V67.252H253.437C253.247 67.538 252.986 67.7653 252.656 67.934C252.334 68.0953 251.982 68.176 251.6 68.176C250.896 68.176 250.291 67.901 249.785 67.351C249.287 66.7863 249.037 66.1043 249.037 65.305C249.037 64.5057 249.287 63.8273 249.785 63.27C250.291 62.7127 250.896 62.434 251.6 62.434C251.982 62.434 252.334 62.5183 252.656 62.687C252.986 62.8483 253.247 63.072 253.437 63.358H253.481V62.61H254.449V67.769C254.449 68.6343 254.204 69.3127 253.712 69.804C253.214 70.3027 252.554 70.552 251.732 70.552Z" fill="#252C34"/>
</svg>
