<svg width="48" height="64" viewBox="0 0 48 64" fill="none" xmlns="http://www.w3.org/2000/svg">
<path d="M39.7793 12.2959C43.1968 15.3831 45.6459 19.3949 46.83 23.8455C48.0142 28.296 47.8826 32.9945 46.4512 37.3718C45.0197 41.7491 42.3499 45.6175 38.765 48.5085C35.1801 51.3996 30.8338 53.1893 26.2526 53.6608V60.8653C26.2526 61.5117 25.9958 62.1316 25.5388 62.5887C25.0817 63.0458 24.4618 63.3025 23.8154 63.3025C23.169 63.3025 22.5491 63.0458 22.092 62.5887C21.6349 62.1316 21.3781 61.5117 21.3781 60.8653V53.6608C16.7969 53.1893 12.4507 51.3996 8.86579 48.5085C5.28087 45.6175 2.61104 41.7491 1.17962 37.3718C-0.251803 32.9945 -0.38341 28.296 0.800734 23.8455C1.98488 19.3949 4.43398 15.3831 7.85144 12.2959L19.7306 1.57202C20.8505 0.560179 22.3061 0 23.8154 0C25.3247 0 26.7803 0.560179 27.9002 1.57202L39.7793 12.2959ZM26.2526 26.7488C26.2526 26.1024 25.9958 25.4824 25.5388 25.0254C25.0817 24.5683 24.4618 24.3115 23.8154 24.3115C23.169 24.3115 22.5491 24.5683 22.092 25.0254C21.6349 25.4824 21.3781 26.1024 21.3781 26.7488V48.7522C22.9963 48.9608 24.6345 48.9608 26.2526 48.7522V26.7488Z" fill="#3C7C50"/>
</svg>
